<?xml version="1.0" encoding="UTF-8" standalone="no"?>
<svg
   xmlns:dc="http://purl.org/dc/elements/1.1/"
   xmlns:cc="http://creativecommons.org/ns#"
   xmlns:rdf="http://www.w3.org/1999/02/22-rdf-syntax-ns#"
   xmlns:svg="http://www.w3.org/2000/svg"
   xmlns="http://www.w3.org/2000/svg"
   xmlns:sodipodi="http://sodipodi.sourceforge.net/DTD/sodipodi-0.dtd"
   xmlns:inkscape="http://www.inkscape.org/namespaces/inkscape"
   id="svg2"
   height="60"
   width="60"
   version="1.0"
   sodipodi:docname="food-not-bombs.svg"
   inkscape:version="0.92.3 (2405546, 2018-03-11)">
  <sodipodi:namedview
     pagecolor="#ffffff"
     bordercolor="#666666"
     borderopacity="1"
     objecttolerance="10"
     gridtolerance="10"
     guidetolerance="10"
     inkscape:pageopacity="0"
     inkscape:pageshadow="2"
     inkscape:window-width="1366"
     inkscape:window-height="702"
     id="namedview47"
     showgrid="false"
     inkscape:zoom="7.8666668"
     inkscape:cx="34.721352"
     inkscape:cy="31.44281"
     inkscape:window-x="0"
     inkscape:window-y="25"
     inkscape:window-maximized="1"
     inkscape:current-layer="svg2"
     fit-margin-top="0"
     fit-margin-left="0"
     fit-margin-right="0"
     fit-margin-bottom="0"
     showguides="true"
     inkscape:guide-bbox="true">
    <sodipodi:guide
       position="13.752627,46.426353"
       orientation="0,1"
       id="guide42"
       inkscape:locked="false" />
    <sodipodi:guide
       position="4.0677965,21.610169"
       orientation="1,0"
       id="guide44"
       inkscape:locked="false" />
    <sodipodi:guide
       position="-7.2457626,0.50847457"
       orientation="0,1"
       id="guide46"
       inkscape:locked="false" />
    <sodipodi:guide
       position="49.957626,9.1525422"
       orientation="1,0"
       id="guide48"
       inkscape:locked="false" />
  </sodipodi:namedview>
  <metadata
     id="metadata1235">
    <rdf:RDF>
      <cc:Work
         rdf:about="">
        <dc:format>image/svg+xml</dc:format>
        <dc:type
           rdf:resource="http://purl.org/dc/dcmitype/StillImage" />
        <dc:title></dc:title>
      </cc:Work>
    </rdf:RDF>
  </metadata>
  <defs
     id="defs4" />
  <g
     id="g66"
     transform="translate(2,-1.999999)">
    <circle
       r="22.944914"
       cy="36.518562"
       cx="27.012711"
       id="path50"
       style="color:#000000;clip-rule:nonzero;display:inline;overflow:visible;visibility:visible;opacity:1;isolation:auto;mix-blend-mode:normal;color-interpolation:sRGB;color-interpolation-filters:linearRGB;solid-color:#000000;solid-opacity:1;fill:#ffffff;fill-opacity:1;fill-rule:nonzero;stroke:none;stroke-width:0.94488192;stroke-linecap:round;stroke-linejoin:round;stroke-miterlimit:4;stroke-dasharray:none;stroke-dashoffset:0;stroke-opacity:1;color-rendering:auto;image-rendering:auto;shape-rendering:auto;text-rendering:auto;enable-background:accumulate" />
    <g
       transform="translate(3.548451,4)"
       id="g38">
      <path
         id="path19907"
         style="fill:#ff7700;fill-opacity:1;fill-rule:nonzero;stroke:none;stroke-width:0.14765985px;stroke-linecap:butt;stroke-linejoin:miter;stroke-opacity:1"
         d="M 32.108895,21.714823 6.596244,40.300056 6.088511,43.128703 8.829176,41.362545 26.402645,38.214924 36.357431,26.317052 Z"
         inkscape:connector-curvature="0" />
      <path
         id="path17963"
         style="fill:#ba529f;fill-opacity:1;fill-rule:evenodd;stroke:none;stroke-width:0.14765985px;stroke-linecap:butt;stroke-linejoin:miter;stroke-opacity:1"
         d="m 25.252344,21.089453 -1.430208,2.45209 -2.928266,0.10249 -1.399935,2.659983 -2.520902,0.308838 -0.680015,3.952007 -2.795011,0.920443 -0.923197,4.362686 2.013627,-0.718375 2.258806,3.777208 -2.817854,2.619119 5.234527,7.473542 2.21111,6.824786 12.199518,-2.218649 -2.046518,-9.545833 1.805843,-6.099468 -1.499917,-9.065783 -1.975353,-1.194797 -2.249954,-5.997225 z"
         inkscape:connector-curvature="0" />
      <g
         id="g29624"
         style="fill:#ff7700;fill-opacity:1"
         transform="matrix(0.14765985,0,0,0.14765985,-54.223465,-52.336188)">
        <path
           id="path27680"
           style="fill:#ff7700;fill-opacity:1;fill-rule:evenodd;stroke:none;stroke-width:1px;stroke-linecap:butt;stroke-linejoin:miter;stroke-opacity:1"
           d="m 684.04935,538.90204 -0.99283,20.12771 -17.38119,-1.83969 -6.7119,-14.10743 z"
           inkscape:connector-curvature="0" />
        <path
           id="path27682"
           style="fill:#ff7700;fill-opacity:1;fill-rule:evenodd;stroke:none;stroke-width:1px;stroke-linecap:butt;stroke-linejoin:miter;stroke-opacity:1"
           d="m 639.73858,443.07898 3.07973,11.60132 -13.17259,13.01618 -4.53701,-12.94858 z"
           inkscape:connector-curvature="0" />
        <path
           id="path27684"
           style="fill:#ff7700;fill-opacity:1;fill-rule:evenodd;stroke:none;stroke-width:1px;stroke-linecap:butt;stroke-linejoin:miter;stroke-opacity:1"
           d="m 599.74559,430.2888 5.39944,17.05196 -7.95956,1.41286 -11.31451,-16.06591 z"
           inkscape:connector-curvature="0" />
      </g>
      <g
         id="g32542"
         transform="matrix(0.14765985,0,0,0.14765985,-54.223465,-52.336188)">
        <path
           id="path30598"
           style="fill:#ba529f;fill-opacity:1;fill-rule:evenodd;stroke:none;stroke-width:1px;stroke-linecap:butt;stroke-linejoin:miter;stroke-opacity:1"
           d="m 631.64381,422.91447 4.6442,9.45162 -14.37104,9.49122 -7.09432,-7.17632 z"
           inkscape:connector-curvature="0" />
        <path
           id="path30600"
           style="fill:#ba529f;fill-opacity:1;fill-rule:evenodd;stroke:none;stroke-width:1px;stroke-linecap:butt;stroke-linejoin:miter;stroke-opacity:1"
           d="m 596.64465,458.48726 -3.85618,14.66466 -13.95582,-8.822 3.11934,-12.49656 z"
           inkscape:connector-curvature="0" />
        <path
           id="path30602"
           style="fill:#ba529f;fill-opacity:1;fill-rule:evenodd;stroke:none;stroke-width:1px;stroke-linecap:butt;stroke-linejoin:miter;stroke-opacity:1"
           d="m 676.80343,523.46376 -22.4234,1.20326 -6.95711,-11.10011 18.07362,-2.35929 z"
           inkscape:connector-curvature="0" />
      </g>
      <path
         id="path32547"
         style="fill:#00bb00;fill-opacity:1;fill-rule:evenodd;stroke:none;stroke-width:0.14765985px;stroke-linecap:butt;stroke-linejoin:miter;stroke-opacity:1"
         d="m 47.884846,14.261951 0.397637,2.530416 -2.434019,0.819372 0.0241,-1.964083 m -0.41896,5.702885 -2.362933,0.345156 0.81574,-1.668044 1.265563,-0.929176 0.741375,0.857443 z m -0.874911,-5.066458 -0.734722,-2.279277 -2.254922,1.519516 0.923286,2.909987 m 0.843575,2.080174 -3.311574,0.490754 0.941582,-3.47864 z M 36.33306,9.1902801 35.416787,11.668363 34.342307,9.8392461 Z m 1.076549,0.014619 1.755107,-1.921735 -1.548197,-1.308916 -1.445597,1.5606022 z M 33.701965,7.3885105 35.616787,4.6671602 33.550134,3.7913497 Z m -0.136178,1.0725926 -0.841404,1.9072609 -1.558535,-1.3789989 0.110516,-1.7356458 1.232691,0.221884 z M 32.006396,6.330036 31.997625,3.1577118 30.109618,0.7467897 30.007874,4.2497361 Z M 29.477192,5.6206751 28.822378,7.2370337 26.968453,5.8650921 27.376427,3.298882 Z m 1.08033,7.6134279 -0.16456,2.358796 -2.111958,-1.182486 0.481482,-2.6515 z m -2.58346,1.035763 -2.766564,0.895805 -1.550617,-1.239751 2.108324,-1.977846 z m -1.173593,1.781628 1.622206,0.688895 -1.36125,2.192318 -2.180121,-0.403129 z m 9.819359,-2.650912 2.500469,8.199576 2.58275,0.561842 -3.945002,0.955697 1.950321,2.014057 3.187945,0.840341 -1.113407,1.760954 -1.730299,-1.65044 1.026284,3.195212 c 0,0 2.355876,1.548904 2.259479,1.356111 -0.0964,-0.192794 0.674423,2.252567 0.674423,2.252567 l -2.031894,0.313288 -0.923037,-3.695446 -1.562606,-0.139751 -0.432427,-3.588713 -3.492673,0.221027 -1.686943,-2.902596 1.777493,-2.572058 -4.910389,-1.621203 -1.05694,-1.958593 7.754096,2.828587 -1.85493,-5.370403 z m 4.631388,21.669818 -2.900173,-0.517486 0.833489,-2.513668 1.596395,0.921115 z m -3.458087,-2.840282 1.55939,-1.908472 -0.938659,-1.588125 -0.941079,1.498994 z"
         inkscape:connector-curvature="0" />
      <path
         id="path2276"
         style="fill:#000000;fill-opacity:1;stroke-width:0.14765985"
         d="m 30.3118,0 -0.484509,1.1305207 0.133816,1.9518787 -0.47528,-0.032301 c -0.06811,0.2119883 -0.0523,0.5778229 0.02769,1.0613051 l 0.461437,0.6506263 c 0.617838,0.8692676 0.916762,1.2016411 1.35201,1.5042847 0.200801,0.1396242 0.444932,0.2537918 0.539881,0.2537904 h 0.170732 c 0.14515,-0.5178608 0.200773,-1.0546877 0.263016,-1.587343 l 0.101516,-0.9228741 h -0.346077 l 0.0969,-0.5537244 c 0.05414,-0.3045485 0.159359,-0.6196192 0.230719,-0.69677 0.07137,-0.077152 0.129204,-0.1934358 0.129202,-0.2584047 V 2.3856295 H 31.940672 L 31.733026,2.7178641 31.488464,2.2841133 31.788398,1.1997363 31.599209,0.8859591 31.04087,1.3889255 C 30.935206,0.9217861 30.843461,0.42217 30.667106,0.1199736 Z m -0.05999,1.3058668 0.332234,0.2030323 0.193804,1.0382333 0.378378,-0.1430455 0.179961,0.7198418 h 0.470666 c -0.130214,0.4219774 -0.208534,0.8564084 -0.27686,1.2920237 l -0.09229,0.6275544 h 0.484509 v 0.8859591 h -0.133817 c -0.173085,0 -1.6381,-1.8365002 -1.638101,-2.0533948 v -0.161503 l 0.369149,0.07383 z m -2.754779,1.3473961 -0.373764,0.124588 -0.08767,2.0349373 c -0.205155,0.1461992 -0.418864,0.2710129 -0.576797,0.535267 -0.02317,0.3193091 0.1017,0.6173118 0.216876,0.9090309 l 0.212261,0.5168095 0.91826,0.1845748 0.646011,0.7429137 1.033619,-0.07383 c 0.07445,-0.379668 -0.08032,-0.8176915 -0.07844,-1.2597231 L 30.039552,5.5141725 29.836519,5.1911666 H 29.296638 C 29.172625,4.9387478 29.136011,4.6701307 29.116678,4.3928805 V 4.0652602 L 28.765986,3.7145681 28.498352,3.9591297 C 28.1796,4.2475995 28.204658,4.2705178 27.810811,3.3684903 Z m 6.04021,0.1199737 -0.313777,0.3183915 0.161503,0.2999341 c 0.08874,0.1658057 0.161505,0.4464865 0.161503,0.62294 V 4.3328937 L 33.075807,4.1529333 32.80356,4.323665 c 0.220723,0.27199 0.379934,0.5560626 0.447593,0.8998022 v 0.2630191 h -0.442979 v 0.1384311 c 3e-6,0.078416 0.238952,0.5767697 0.530653,1.1074489 l 0.530652,0.9690178 h 0.378378 L 34.441661,7.2307183 C 34.548638,6.9724582 34.867977,6.4619908 35.14766,6.0955832 L 35.65524,5.4264995 35.62755,4.4713248 C 35.61311,3.9462508 35.5632,3.4573904 35.516809,3.3823334 l -0.08306,-0.1384311 -0.81213,0.9736322 c -0.240143,-0.470676 -0.53674,-0.9422357 -0.765983,-1.158207 z m -5.970995,0.8859591 0.701385,1.3612392 0.406064,-0.1568886 v 0.461437 l 0.54911,0.5306526 -0.203032,0.4798945 c -0.110464,0.263942 -0.251645,0.479896 -0.313777,0.4798946 -0.06213,0 -0.358789,-0.1691828 -0.659855,-0.373764 L 27.501645,6.067897 27.164796,5.444957 27.880023,5.5787737 27.681606,4.8312457 C 27.574013,4.4191197 27.503032,3.9875926 27.52472,3.8714567 Z m 6.312459,0.4522082 0.539881,0.7106131 0.299934,-0.1845748 c 0.411928,-0.2535586 0.45221,-0.2393699 0.452209,0.1799604 V 5.1819379 C 34.79278,5.7553742 34.456299,6.3619528 34.003296,6.8800261 L 33.864865,6.9676992 33.666447,6.3401448 33.989453,6.0171389 V 5.3526696 L 33.749505,5.2050097 Z m 2.588662,0.1938036 0.0969,0.3322347 c 0.05526,0.182729 0.130427,0.6312473 0.166118,0.996704 l 0.0646,0.6644693 -0.170732,-0.3691496 H 36.232032 L 36.38892,7.0922872 35.761366,6.9261698 v 0.498352 c 0.450668,0.5818273 0.97698,1.1181693 1.328939,1.7673043 v 0.133816 c 0.667562,0.03895 1.204055,-0.402615 1.64733,-0.853658 l 0.350697,-0.419908 0.572182,-1.670402 -0.179961,-0.1799604 -0.922874,0.4752801 -0.286091,-0.175346 V 5.5510875 4.6005272 h -0.272247 l -0.341464,1.033619 H 37.381015 L 36.735003,4.3052075 Z m 1.365853,1.9057349 c 0.07223,0.259812 0.170215,0.5090933 0.286091,0.7521424 l 0.119974,0.2214898 0.641397,-0.07383 -0.267633,0.4568226 c -0.146616,0.2519756 -0.424649,0.5843709 -0.618326,0.7382989 -0.193678,0.15393 -0.439156,0.281479 -0.544496,0.281477 h -0.1938 L 36.675016,7.7659852 36.82729,6.9630848 h 0.410679 V 6.529334 Z m -7.299934,0.013843 -0.290705,0.2907053 0.313777,0.3322346 c 0.172186,0.1838041 0.383963,0.523308 0.470666,0.7521424 l 0.156889,0.4152934 -0.59064,-0.1891892 v 0.2122612 c 3e-6,0.11634 0.132896,0.379533 0.29532,0.586025 0.353412,0.449288 0.366969,0.553726 0.07383,0.553724 h -0.22149 v 0.129203 c 3e-6,0.205886 0.305618,0.401708 1.255109,0.8075149 1.088653,0.465282 1.055651,0.465273 1.27818,0.05999 L 33.458797,9.8424561 33.652601,8.2181971 33.408039,7.5583424 32.914301,7.7475316 33.052733,6.8015856 32.785099,6.6354683 32.074486,7.304552 Z m 0.895188,1.1074488 0.682927,0.5906394 0.0646,-0.1845748 c 0.03551,-0.1015161 0.124755,-0.1845733 0.193804,-0.1845748 h 0.124588 l 0.09229,0.8121291 0.705999,-0.101516 c -0.07814,0.462923 -0.129907,0.932798 -0.276862,1.379697 -0.101251,0.163831 -0.487009,0.142122 -0.945946,-0.05076 l -0.36915,-0.156889 0.36915,-0.138431 v -0.36915 l -0.81213,-0.392221 0.544496,-0.124588 z m 3.603823,0.3183916 c -0.109483,0.3188921 -0.168004,0.6516003 -0.226101,0.9828613 l -0.0969,0.562953 -0.43375,-0.0969 c -0.238939,-0.05248 -0.434128,-0.0729 -0.433751,-0.04614 0.0024,0.170348 0.724152,1.7620479 0.996704,2.2010549 l 0.32762,0.530653 c 0.242241,0.123621 0.488455,0.23748 0.742914,0.332234 0.08171,0.01075 0.594139,-2.5683919 0.590639,-2.9716539 v -0.258405 l -1.107449,0.06922 -0.0969,-1.0336193 z m 5.569545,1.2089653 -0.313777,0.290705 c -0.312692,0.28912 -2.062294,1.3566269 -2.224126,1.3566249 -0.04593,0 0.02644,-0.233584 0.161503,-0.5168089 l 0.244561,-0.51681 -0.216875,-0.216875 -1.458141,1.6196439 c -0.185956,0.466208 -0.338562,0.965767 -0.47528,1.481213 l -0.447594,0.212261 c -0.28952,-0.180587 -0.583483,-0.353361 -0.881345,-0.521424 l -0.567567,-0.95056 c -0.389797,-0.253418 -0.794273,-0.47421 -1.162822,-0.44298 h -0.304548 v 0.29532 c -4.43e-4,0.03091 -0.01136,0.05242 -0.02307,0.07383 C 30.040008,9.7479721 26.845693,9.0349371 23.482531,9.0349371 10.520416,9.0349371 -1.4999998e-6,19.555348 0,32.517467 c -1.4999998e-6,12.962118 10.520414,23.482527 23.482531,23.482531 12.96212,0 23.48253,-10.520416 23.48253,-23.482531 0,-1.089644 -0.07321,-2.16143 -0.216875,-3.211601 0.470764,-0.236232 0.958575,-0.448015 1.35201,-0.802901 l 0.101516,-0.166117 c -0.239981,-0.193257 -0.518349,-0.231305 -0.816743,-0.258405 h -0.415294 l 0.193804,-1.033619 -0.69677,-0.07383 -0.17996,-0.0646 c -0.122068,-0.498545 -0.257371,-0.991137 -0.410678,-1.476599 l 0.512195,-0.323006 -0.62294,-0.839816 c 0.123269,-0.252668 0.368644,-0.328326 0.627554,-0.396835 l 0.44298,-0.0969 V 23.50099 c -0.386088,0.01218 -0.765961,-0.0234 -1.144364,-0.0969 l -0.332235,-0.08767 c 0.07949,-0.480854 -0.200915,-0.835858 -0.359921,-1.255109 l -0.101516,-0.32762 1.642716,-0.807515 v -0.387607 l -0.618326,-0.230718 c 0.356016,-0.331195 0.762821,-0.619828 1.061306,-1.005933 2e-6,-0.03842 -0.282561,-0.09039 -0.627555,-0.115359 l -0.627554,-0.04153 -0.51681,-1.107449 h -0.295319 l -0.0092,0.959789 -0.429137,0.562954 -0.613711,-0.553725 -0.133817,0.216876 c -0.07501,0.11859 -0.141802,0.328723 -0.143045,0.466051 -0.0012,0.13733 -0.06343,0.285878 -0.138431,0.332235 l -0.0646,0.04153 C 43.16563,19.714455 42.937506,19.370662 42.701414,19.034285 v -0.392221 l 0.29532,-0.17996 v -0.51681 l 1.052076,-0.378378 c 0.347928,-0.325338 0.758955,-0.604673 1.015161,-1.010547 v -0.11536 l -0.590639,0.152275 v -0.08306 c 3e-6,-0.04468 0.209739,-0.418264 0.466051,-0.830587 l 0.466052,-0.747528 -0.193804,-0.193803 -1.005932,0.309162 c -0.07703,-0.613117 -0.137458,-1.229381 -0.276863,-1.831905 l -0.07844,-0.198417 h -0.392221 c -0.08409,0.358317 -0.272455,0.66626 -0.489124,0.959789 l -0.309162,0.392221 -0.253791,-0.392221 c -0.315924,0.358162 -0.56904,0.754081 -0.742913,1.199736 l -0.156889,0.461437 c 0.102672,0.661404 0.223618,1.320293 0.309163,1.984179 5.9e-4,0.05775 0.14527,0.240475 0.323006,0.406065 l 0.323006,0.304548 h -0.272248 c -0.601575,-0.793485 -1.251391,-1.546865 -1.947265,-2.256427 l 0.853659,-1.951879 0.793672,-0.853658 c -0.347442,0.05631 -0.684278,0.149278 -1.015162,0.267633 l -0.281476,0.11536 0.193803,-1.744232 -1.711931,1.859591 -0.433751,-0.161503 c -0.205024,0.112391 -0.336015,0.287825 -0.461437,0.479894 l -0.04614,0.08306 C 37.611273,13.75299 37.070133,13.357748 36.513513,12.984838 l -0.01384,-0.40145 0.609096,0.216875 c 0.721782,0.254659 1.048594,0.265992 1.790376,0.05999 l 0.553725,-0.152274 v -0.599868 l 1.05669,-0.996704 -0.10613,-0.530653 -0.253791,0.01846 c -0.327803,0.0266 -0.327231,0.02581 0.179961,-0.7890579 l 0.429136,-0.69677 z m -4.692814,0.627554 C 35.816578,10.06324 35.68325,10.659615 35.424519,11.185234 L 35.323003,11.28675 35.092284,10.73764 C 34.805002,10.05007 34.840478,9.9350151 35.433748,9.6855631 Z m -12.426499,0.502967 c 1.660155,0 3.27841,0.1757689 4.83586,0.5168089 l -0.110745,0.350692 c 0.02365,0.388417 0.233615,0.731758 0.318391,1.107449 v 0.115359 c -0.294227,-0.04989 -0.593353,-0.107406 -0.885959,-0.07844 0.0026,0.08551 0.402827,1.358385 0.51681,1.642716 l 0.10613,0.258405 -0.54911,-0.0092 -0.632017,-1.112094 c -0.77971,-0.574119 -1.591962,-1.651515 -2.071818,-1.674988 l -0.212444,-0.0093 0.152274,1.162821 c -0.22229,0.0083 -0.433562,-0.03839 -0.678464,0.08303 -0.126695,0.343216 0.267986,0.556801 0.208042,0.751868 -0.458574,-0.05569 -0.945364,-0.115913 -1.361666,-0.138248 -0.215276,-0.03513 -0.430552,-0.09704 -0.645829,0.0094 l -0.166056,0.175316 c 0.03112,0.14766 0.06689,0.29532 0.170731,0.44298 l 1.471984,0.710491 c 0.1487,0.203857 -0.206443,0.355999 -0.166483,0.779706 0.337335,0.225734 0.648095,0.02674 0.978552,0.01412 0.407581,0.0081 0.649773,0.264608 0.987475,0.318392 l 1.282795,-0.392344 0.29532,-0.244439 c 0.364764,-0.339828 0.514733,-0.348885 0.765985,-0.04614 0.106363,0.128154 0.530166,0.405288 0.941332,0.613711 l 0.747528,0.378379 0.812129,-0.02307 1.550429,1.762689 1.139749,0.341464 0.539881,-0.719842 0.350693,-1.259723 -0.08767,-0.539881 c -0.04826,-0.297377 -0.149995,-0.606823 -0.230718,-0.687542 l -0.14766,-0.147659 -0.410679,0.341463 -0.336849,-0.733685 h -0.447594 v 0.502966 l -1.121292,-1.093605 h -0.387607 l 0.106131,0.332234 c 0.0593,0.182729 0.140042,0.581412 0.17996,0.885959 l 0.07383,0.553725 h -0.646012 c 0.0581,-0.749438 0.06836,-1.500582 0.05076,-2.251813 l -0.02769,-0.849044 h -0.738299 v 0.355306 c -0.296287,-0.297182 -0.52341,-0.650534 -0.742914,-1.005932 l -0.498352,-0.867502 c 1.19537,0.287334 2.352214,0.669824 3.465392,1.13975 l 0.392222,0.512195 c 0.251701,0.325666 0.232561,0.423157 -0.106131,0.530652 l -0.295319,0.09229 v 0.276862 h 0.452208 l 1.49967,1.033619 0.318392,-0.0046 c 0.429115,-0.0031 0.640087,-0.158056 0.807515,-0.59064 l 0.08306,-0.212261 c 0.01803,0.01126 0.03737,0.02099 0.05537,0.0323 l -0.04153,2.620962 1.545814,2.510217 c 0.0028,0.322633 0.01771,0.651922 -0.05999,0.959789 -0.507515,-0.388175 -0.971249,-0.822097 -1.5412,-1.125906 l -0.516807,-0.244598 -2.814766,-0.419907 -2.076466,-1.144364 c -0.318451,-0.319709 -0.603114,-0.691866 -1.005933,-0.904417 h -0.138431 l 0.193804,1.204351 c 0.275427,0.568947 0.571582,1.127172 0.932102,1.64733 l 0.313778,0.424522 c 0.64128,0.370734 1.368734,0.540906 2.081081,0.719842 l 1.27818,0.304549 c 0.527853,0.263196 1.138304,0.422174 1.587344,0.812129 2e-6,0.06151 -0.195047,0.31545 -0.433751,0.562953 -0.238697,0.247506 -0.526236,0.6348 -0.641398,0.858273 l -0.212261,0.406064 -1.296638,-1.033619 h -0.636783 l -2.888596,1.458141 c -0.342259,-0.225023 -0.541532,-0.627914 -0.761371,-0.964403 l -0.521424,-0.807515 -0.95056,-0.387607 -1.845748,-0.203032 -0.779829,0.830586 -0.719841,1.550429 H 20.67238 l -0.835201,0.890573 -0.682927,1.914964 h -2.09031 l -0.235332,0.184575 -0.239948,0.184575 -0.230718,0.705998 -0.235333,0.705999 -0.359921,2.657877 -1.72116,0.299934 -0.862887,0.798286 -1.06592,2.464074 0.193804,1.421226 -0.327621,0.618326 c -0.315432,-0.02917 -0.593693,0.08822 -0.867501,0.235333 l -0.406065,0.239947 c -0.257895,0.55894 -0.624458,1.040804 -1.056691,1.476598 l -0.539881,0.502967 -2.067238,0.853658 -0.641397,0.641398 -0.507581,1.587343 -0.138431,3.128543 0.95056,1.079763 H 7.286092 L 6.635466,44.034934 6.82004,43.361236 8.148979,41.972311 c 1.367501,-0.344412 2.729585,-0.767558 4.134476,-0.927489 0.121818,0.0035 0.516086,0.06921 0.87673,0.14766 l 0.655241,0.143046 0.175346,0.235333 c 0.09474,0.129564 0.490632,1.115424 0.881345,2.191825 l 0.710613,1.961108 c 0.936154,1.08948 2.198297,1.819326 3.216216,2.823994 l 0.387607,0.424523 c 0.316913,0.953745 0.424172,1.96154 0.558339,2.953197 0.13539,1.057514 0.222189,2.059129 0.193803,2.224126 L 19.82795,54.749502 C 9.128994,53.001564 0.9551757,43.708349 0.9551757,32.517467 0.9551742,20.082115 11.047177,9.9901121 23.482532,9.9901121 Z m 15.698087,0.6829259 -0.341463,0.839816 0.516809,0.101516 -1.227422,0.812129 c -0.263338,-0.0094 -0.522354,-0.04766 -0.779829,-0.101516 l -0.258404,-0.06922 c -0.03028,-0.261029 0.101272,-0.466731 0.230718,-0.682926 l 0.230719,-0.327621 c 0.383799,0.03279 0.730619,-0.124738 1.070534,-0.286091 z m -5.518787,0.867502 c 0.230868,-0.02353 0.370042,0.124075 0.530653,0.272248 l 0.249176,0.276862 0.17996,1.518128 h -0.452205 l -0.69677,-0.581411 0.392222,-0.0092 -0.659855,-1.070534 0.613711,0.193803 z m -4.6882,0.664469 0.678313,1.181279 0.659855,-0.07383 -0.08767,1.675017 -0.14766,0.04153 c -0.08121,0.02328 -0.328722,-0.05593 -0.54911,-0.175346 l -0.401451,-0.216875 0.156889,-0.410679 -0.609097,-1.195122 0.29532,-0.179961 z m -3.446934,0.03692 0.646011,0.346078 0.876731,1.208965 v 0.562953 l -0.512195,0.212261 c -0.611889,0.255665 -0.624506,0.259039 -0.747528,0.05999 l -0.0969,-0.156888 -0.858273,0.189189 v -0.613711 h -0.406065 l -0.369149,-0.44298 h 1.481213 l 0.10613,-0.332235 c 0.127093,-0.394534 0.127945,-0.403981 -0.0092,-0.756756 z M 46.70204,13.238633 46.6882,14.5122 46.379037,15.084381 45.834542,14.793676 c -0.131536,0.466198 -0.1972,0.94691 -0.263019,1.425841 l -0.101517,0.765985 0.198418,1.052076 c 0.476574,0.02991 0.9285,-0.147593 1.370468,-0.304548 l 0.807515,-0.299934 1.056691,-1.17205 v -0.586025 h -0.71062 l 0.161503,-1.767304 -0.521424,-0.198418 -0.286091,0.512195 z m -6.718523,0.22149 h 0.0969 l -0.156889,1.190508 0.562953,-0.179961 v 0.36915 L 39.152928,16.118 h -0.438365 c -0.01381,-0.359764 0.04156,-0.716168 0.0969,-1.070534 l 0.08767,-0.553724 h 0.54911 c 0.142183,-0.367887 0.291244,-0.730905 0.535267,-1.033619 z m -4.079104,0.738299 h 0.239948 l 0.258404,0.710613 c 0.141295,0.392919 0.522313,1.165317 0.84443,1.716546 l 0.586025,1.005933 0.470666,1.633487 -0.14766,2.390244 -0.29532,0.862887 c -0.163549,0.474933 -0.379347,0.94006 -0.479894,1.033619 l -0.184575,0.170732 0.101516,-0.36915 c 0.230852,-0.861771 0.382962,-2.062104 0.382993,-3.027027 V 19.292682 C 37.477745,18.415159 37.101225,17.594928 36.72116,16.782465 l -0.641398,-1.328939 z m 7.586025,0.07383 0.193804,0.7383 -0.133817,1.107448 c 0.198369,0.01838 0.28461,-0.05479 0.387607,-0.221489 l 0.08306,-0.22149 h 0.350692 l -0.489123,0.539881 v 0.779829 c -0.451782,0.237147 -0.899777,0.482317 -1.398155,0.599868 h -0.226104 c -0.0079,-0.588019 -0.0023,-1.176334 0.09229,-1.758075 l 0.09229,-0.461437 0.470666,0.07844 z m -11.563612,0.44298 0.54911,0.710613 0.479895,-0.184575 v 0.433751 h 0.119973 l 0.470666,-0.355307 0.01846,0.212261 c 0.02871,0.351273 -0.02125,0.636868 -0.18919,1.06592 L 33.214238,17.00396 H 33.04812 c -0.09311,0 -0.423194,-0.176624 -0.733685,-0.387608 l -0.567567,-0.382992 0.08767,-0.318392 c 0.04689,-0.174777 0.08476,-0.513116 0.08767,-0.756757 z m 5.398813,0.03692 c 0.249292,0.195094 0.492846,0.394783 0.733685,0.599868 l 0.249176,1.379697 0.378379,0.143045 c 0.221067,-0.11314 0.442012,-0.226492 0.664469,-0.336849 0.48314,0.480092 0.941875,0.981957 1.379697,1.504285 -0.340885,0.450876 -0.484323,1.011588 -0.641398,1.545814 l -0.286091,1.033619 0.11536,0.516809 h 1.259723 l 1.471984,-0.447594 c 0.09187,0.148406 0.183754,0.296859 0.272248,0.447594 v 0.655241 c 0.139492,0.02281 0.277504,0.05248 0.415293,0.08306 0.06377,0.118634 0.122888,0.240065 0.184575,0.35992 l -1.398154,0.849045 -0.636784,0.152274 c -0.348778,0.08539 -0.711215,0.215771 -0.807514,0.290705 l -0.175346,0.138431 1.370468,1.347396 1.195121,0.544496 1.098221,0.0092 -0.08306,-0.22149 c -0.101398,-0.264245 -0.08423,-0.269298 0.502966,-0.0646 l 0.258405,0.09229 c 0.207917,0.621905 0.390873,1.256423 0.544496,1.901121 l -0.02307,0.0646 H 44.76862 v -0.576796 l -0.272248,-0.166118 -0.632169,0.890574 h -0.42452 v -0.143046 c 3e-6,-0.07662 -0.199339,-0.257524 -0.442979,-0.40145 -0.243636,-0.143921 -0.442979,-0.301458 -0.44298,-0.355306 3e-6,-0.05385 0.199342,-0.180562 0.44298,-0.281477 l 0.442979,-0.184575 v -0.336849 l -1.910349,-0.682927 -1.310481,0.07845 -0.761371,-0.904417 -0.88596,-0.36915 c 0.07017,-0.298693 0.134708,-0.599107 0.244562,-0.885959 l 0.0646,-0.110744 h 0.710613 c 0.391123,0 0.919022,-0.04168 1.17205,-0.09229 l 0.456823,-0.09229 1.038233,-0.978247 -0.276862,-0.175346 -1.864206,0.129202 -1.052076,-0.429136 -0.0323,-0.692156 c -0.0451,-1.046341 -0.151925,-1.438607 -0.761371,-2.764007 -0.56387,-1.226302 -1.105399,-2.858345 -0.987475,-2.976269 0.0024,-0.0024 0.02107,-0.04522 0.04153,-0.08767 z m 10.396177,0.0092 c 0.02604,0.297336 -0.09873,0.564048 -0.226104,0.825972 l -0.226105,0.433751 0.156889,0.410679 0.590639,-0.18919 v 0.332235 c -0.531049,0.230822 -1.06001,0.468798 -1.610415,0.650626 l -0.350692,0.106131 c 0.09307,-0.428413 0.160867,-0.859314 0.189189,-1.296638 v -0.341464 l 0.59064,-0.189189 v -0.387607 c 0.236815,-0.0815 0.471026,-0.169417 0.701384,-0.267633 z m -21.027686,0.955174 -0.526038,0.138431 0.166117,0.669084 c -0.46633,0.07416 -0.930271,0.160003 -1.388925,0.272248 l -0.258405,0.07844 v 0.553725 l 0.609097,0.429136 -1.481213,0.69677 -0.01384,0.341463 1.181279,0.198418 1.208965,-0.203032 -0.193803,0.62294 h 0.0969 c 0.05411,0 0.315143,-0.104368 0.58141,-0.230719 l 0.484509,-0.230718 0.438365,-0.544496 c 0.241049,-0.300017 0.552864,-0.768797 0.692156,-1.038233 l 0.253783,-0.489123 -0.09229,-0.641398 z m 0.424522,0.84443 c 0.275274,-0.03065 0.498156,0.06029 0.733685,0.193804 l 0.267634,0.193803 -0.258405,0.507581 c -0.141151,0.278358 -0.359896,0.623864 -0.484509,0.765985 -0.254539,0.290308 -0.475279,0.337453 -0.47528,0.101516 v -0.156888 l -1.402769,0.156888 0.406065,-0.175346 c 0.481687,-0.203968 0.517794,-0.355315 0.110745,-0.484509 L 25.715884,17.5715 c 0.121048,-0.23209 0.363851,-0.288295 0.604482,-0.350692 l 0.447594,-0.0969 z m 2.883982,0.590639 c 0.631135,0.340643 1.270346,0.667882 1.873434,1.056691 l 0.175346,0.143046 2.159525,0.295319 1.91035,0.941332 0.664469,1.181279 0.32762,1.555042 -0.627554,1.296639 -0.498352,0.382992 c -0.527881,0.402638 -0.748622,0.46393 -0.881345,0.249176 l -0.07844,-0.129202 1.001318,-0.765986 0.507581,-1.333553 -0.373764,-1.333553 -0.959789,-0.849044 -1.64733,-0.775214 -1.854977,-0.184575 -0.784443,-0.396836 c -0.313631,-0.398254 -0.681561,-0.764994 -0.913645,-1.218193 z m 11.992748,1.845748 c -0.07334,0.232655 -0.160533,0.460397 -0.249176,0.687542 l -0.101516,0.244561 0.664469,0.101516 0.526039,0.18919 -1.36124,0.47528 h -1.158207 c 0.0788,-0.408416 0.165567,-0.814973 0.267634,-1.218194 l 0.06921,-0.258405 h 0.133817 c 0.07289,0 0.209175,0.144798 0.304549,0.323006 l 0.175346,0.323006 z m 3.165458,0.22149 0.646012,0.742914 -0.756757,0.756757 0.341464,0.415293 -0.396836,0.14766 c -0.217143,0.08256 -0.620848,0.152275 -0.899802,0.152274 h -0.507578 c 1.48e-4,-0.280753 0.12196,-0.550185 0.212261,-0.812129 l 0.212261,-0.59064 0.613711,0.06922 z m -18.748186,2.625577 0.913645,0.22149 c 0.56906,1.110102 1.086143,2.2441 1.481213,3.428477 l 0.47528,1.550428 -0.682927,-0.0046 -0.535267,-0.332234 c -0.816166,-0.502939 -2.405046,-1.732207 -2.537903,-1.965722 l -0.11536,-0.207647 h -0.715227 c -0.167274,-0.265324 -0.263391,-0.544463 -0.304549,-0.853658 v -0.27687 c 0.327881,-0.578813 0.603427,-1.194256 1.005933,-1.725774 0.338323,-0.01262 0.685749,0.08977 1.015162,0.166117 z m 9.058009,-0.115359 c 0.0698,0 0.167718,0.06351 0.216875,0.143045 l 0.08767,0.143046 c -0.170987,0.364889 -0.389057,0.699582 -0.650626,1.005932 -0.166431,0.182729 -0.36122,0.332237 -0.433751,0.332235 h -0.129202 l 0.0969,-0.332235 c 0.141958,-0.46873 0.660747,-1.292022 0.81213,-1.292023 z m 3.686881,0.295319 1.550429,0.0092 -0.572182,0.433751 h -0.978247 z m -6.972313,0.433751 1.947264,1.665788 0.895188,1.813447 0.175346,1.476599 -1.222808,1.384311 -0.493738,0.304548 c -0.690907,0.427006 -0.735284,0.407351 -0.853658,-0.35992 l -0.04614,-0.29532 -2.085695,-0.987475 c -0.363812,-1.186932 -0.7752,-2.360851 -1.088992,-3.562294 4.43e-4,-0.0638 0.308141,-0.245414 0.682927,-0.406065 0.629217,-0.243148 1.153991,-0.67596 1.771918,-0.936717 z m 11.512976,0.42906 c 0,0 0.03241,0.09673 0.03241,0.09673 0,0 -0.221977,0.04654 -0.221977,0.04654 0,0 0.18957,-0.143274 0.18957,-0.143274 z m -1.255231,0.581487 0.198418,0.323006 1.010547,-0.290705 0.244562,0.442979 h 0.429136 v 0.438366 l 0.959789,0.447594 c -0.476759,-0.100662 -0.957549,-0.179249 -1.43968,-0.249157 l -0.553725,-0.07845 v 0.47528 c -0.242336,0.0076 -0.466928,-0.07281 -0.692155,-0.152274 l -0.327621,-0.129202 -0.456822,-0.890574 z m -20.04021,0.281477 c 0.135125,0.0013 0.271111,0.0081 0.406064,0.01846 l 0.410679,0.04614 0.747528,1.185893 -0.784443,2.265656 0.175347,1.744232 c 0.707896,1.012684 1.606034,1.863295 2.639419,2.537904 l 0.530653,0.299934 0.267633,0.756757 -0.207646,1.661173 -0.489124,0.299934 c -0.615948,0.380679 -0.609782,0.384276 -1.568885,-0.101516 l -0.802898,-0.406045 c -0.07826,-0.703502 -0.203298,-1.398036 -0.438365,-2.067238 L 23.053395,31.40079 C 22.441658,30.91353 21.79207,30.457647 21.290706,29.850361 l -0.263019,-0.369149 -0.456823,-1.471984 c -0.25273,-0.808902 -0.461436,-1.630745 -0.461437,-1.827291 v -0.359921 l 1.079762,-2.002637 c 0.403398,-0.03958 0.808205,-0.07312 1.21358,-0.06921 z m 16.025708,0.784443 1.005933,0.419908 0.461437,0.890573 v 1.956493 c 0.13998,0.313244 0.330083,0.580377 0.576796,0.816744 l 0.235333,0.175346 -0.350692,0.355306 -0.904417,-0.899802 0.0646,-2.04878 -0.50758,-0.765986 -0.959789,-0.170732 -1.771919,0.567568 -0.498352,-0.263019 -0.193803,-0.613711 0.08306,-0.08306 c 0.136496,-0.136494 1.305341,-0.32542 2.053394,-0.332235 z m -13.529334,0.959789 0.166118,1.35201 2.353328,2.556362 0.502967,0.0046 c 0.118631,-0.427299 0.245982,-0.85263 0.309163,-1.292024 V 27.93075 h 0.286091 c 0.515256,0 1.922275,0.421705 2.510217,0.752142 l 0.576796,0.318392 c 0.158252,1.609371 0.279706,3.222099 0.382993,4.83586 l 0.0323,0.516809 1.093605,2.505604 0.166118,1.047462 -0.175346,0.659855 c -0.22532,0.840355 -1.389565,3.319744 -1.831905,3.903757 -0.186174,0.245803 -0.419105,0.59528 -0.51681,0.779828 l -0.175346,0.336849 0.655241,1.656559 c 1.248493,3.162872 2.016413,5.943219 2.016483,7.290732 v 0.28609 c -2.955277,1.42533 -6.2697,2.224127 -9.768621,2.224127 -0.741176,0 -1.473556,-0.03607 -2.196441,-0.106131 -0.03764,-0.08651 -0.05913,-0.151422 -0.06921,-0.161503 -0.100441,-0.100441 -0.601809,-3.698941 -0.765986,-5.504943 L 20.330917,47.952529 17.147001,45.769932 16.399473,44.8286 C 15.966865,43.805211 15.561594,42.770855 15.232037,41.709286 L 14.969018,40.79564 c 0.132682,-0.160098 0.326755,-0.15242 0.521424,-0.166117 h 0.350692 l 0.839816,-0.438365 0.576796,-0.789057 0.978246,0.341463 h 1.407383 c 0.365612,-0.413527 0.630403,-0.891161 0.853659,-1.39354 l 0.267633,-0.650626 c 0.587564,0.09237 1.175126,0.198021 1.76269,0.05076 l 0.346078,-0.507581 c 0.190171,-0.278857 0.456326,-0.827047 0.595253,-1.218193 l 0.253791,-0.710613 0.152274,0.0046 c 0.08246,0.0029 0.313779,0.100808 0.516809,0.216875 l 0.36915,0.207647 1.033619,0.0092 0.424522,-0.221489 c 0.529389,-0.276095 0.534217,-0.27182 0.530653,0.04153 v 0.258405 l -0.830587,1.107448 c -0.455133,0.609097 -0.926439,1.340011 -1.047462,1.624259 -0.121024,0.284245 -0.345217,0.693461 -0.498352,0.909031 l -0.276862,0.387607 v 0.62294 h 0.438365 c 0.630184,-1.292242 1.484017,-2.479116 2.487146,-3.506922 0.487259,-0.408412 0.687869,-0.414149 1.167435,-0.03692 0.206494,0.162426 0.432703,0.295317 0.502967,0.29532 h 0.129202 v -0.539866 l -1.328939,-0.99209 v -2.145682 l 0.323006,-1.504285 c 0.339699,-0.261077 0.722052,-0.308878 1.075149,-0.502966 l -0.05971,-0.341616 c -0.286368,-0.160444 -0.783944,0.09139 -1.190416,0.120095 l -1.698454,-0.61368 -0.849044,-0.789058 -0.69677,-1.476598 -0.0046,-2.011866 z m 15.998022,0.175346 c 0.450742,0.06637 0.916398,0.08789 1.338167,0.267633 l 0.0969,0.106131 -0.673698,0.452208 0.498352,0.54911 h -0.466051 l -0.129203,0.36915 c -0.203656,-0.460705 -0.39114,-0.927653 -0.558333,-1.40275 z m -15.029004,0.0323 c 0.390841,0.181316 0.711338,0.46563 1.019776,0.761371 l 0.456822,0.456822 c 0.0033,0.387845 0.01477,0.780013 -0.05537,1.158207 L 25.86816,26.970974 Z m 12.121951,0.175346 0.25379,0.08767 c 0.137885,0.04877 0.370595,0.193227 0.521424,0.323006 l 0.276862,0.239947 -0.17996,1.522742 0.58141,1.356625 0.81213,0.309163 0.65524,-0.166118 0.198418,0.323006 -0.36915,1.31971 0.350693,1.17205 1.591957,1.591958 0.646012,0.203032 0.230719,-0.373764 -0.249176,-0.659855 0.08767,-0.08767 c 0.04896,-0.04896 0.476816,-0.08768 0.95056,-0.08767 h 0.862887 l -0.0046,-0.110745 c -0.329772,-0.426974 -0.868636,-0.637494 -1.176665,-1.08436 v -0.143045 l 0.738299,-0.332235 -0.332235,-0.396836 h -0.40145 c -0.220156,0 -0.440301,-0.04346 -0.493737,-0.0969 l -0.0969,-0.101517 0.32762,-0.392221 -0.346078,-0.415293 c -0.484102,-0.105614 -0.955465,-0.25675 -1.421226,-0.424522 l -0.62294,-0.230719 c 0.136358,-0.216973 0.22508,-0.446343 0.286091,-0.692155 v -0.156889 h -0.747528 c -0.157965,-0.381079 -0.264978,-0.778413 -0.350692,-1.181279 l -0.101516,-0.516809 0.692156,1.181278 1.09822,0.08767 v -0.604483 c 0.271872,-0.009 0.530816,0.04556 0.789057,0.124588 l 0.272248,0.110745 -0.470666,0.387607 c -0.02852,0.394541 0.212559,0.735284 0.406065,1.061305 l 0.406064,0.650626 1.328939,1.056691 0.32762,-0.438365 h 0.581411 c 0.07188,0.731858 0.110745,1.473484 0.110745,2.224126 10e-7,8.43004 -4.641869,15.781178 -11.503625,19.643375 l -0.0646,-0.07844 c -0.233781,-0.281693 -0.811417,-2.04985 -1.112063,-3.405406 L 33.066586,47.500328 C 32.694595,46.560469 32.386214,45.589626 31.912993,44.694791 L 31.774562,44.55636 v -0.853659 c 0.698414,-1.205529 1.284394,-2.470036 1.859592,-3.73764 l 0.858272,-1.919578 c 0.06354,-0.300132 0.206664,-0.547202 -0.0092,-1.033619 l -1.084385,-2.89321 V 32.02373 l -0.346077,-1.153593 c 0.755045,-0.658077 1.456357,-1.371178 2.117996,-2.12261 l 0.747528,-0.87673 0.323005,-1.268952 c 0.387153,0.02244 0.736463,-0.194442 1.070534,-0.364536 z m -19.112722,1.019775 h 0.461437 c 0.324587,0.956194 0.625936,1.921151 0.996704,2.86091 l 0.212261,0.51681 1.001318,0.761371 c 0.495108,0.879502 0.900968,1.800103 1.227423,2.754779 l 0.336849,1.061305 c -0.169825,0.556568 -0.374151,1.100637 -0.618326,1.628873 l -0.244561,0.50758 c -0.229192,0.05172 -0.461979,0.01651 -0.692156,-0.0092 l -0.392221,-0.05999 C 20.846839,36.512408 20.67373,36.007512 20.473959,35.535271 L 20.044823,34.501652 C 19.090995,33.42543 18.096506,32.383053 17.188527,31.266978 l -0.32762,-0.424522 v -0.586025 c -1e-6,-0.322561 0.104884,-1.169634 0.235333,-1.882663 l 0.239947,-1.296638 c 0.510013,-0.0917 1.0227,-0.164357 1.5412,-0.179961 z m 24.705339,1.019776 1.5735,0.119974 c 0.287966,0.178281 0.588949,0.289181 0.922874,0.336849 h 0.29532 l 0.207646,0.332235 c -0.238772,0.15818 -0.484159,0.280274 -0.765985,0.332234 h -0.212258 l -0.119974,0.36915 h 0.318392 v 0.29532 h -0.406065 l -0.369149,-0.44298 H 44.49176 l -0.09229,0.618326 c -0.33698,-0.327971 -0.617044,-0.693994 -0.807515,-1.125907 l -0.166117,-0.429136 z m -5.121951,0.604483 c -0.127915,0 -0.523202,0.182726 -0.876731,0.406064 l -0.641397,0.406065 c -0.02763,0.219746 0.07237,0.356198 0.216875,0.512195 l 0.22149,0.184575 c -0.308432,0.382061 -0.663046,0.738475 -0.881345,1.181279 v 0.115359 h 0.553725 c -0.141602,0.601172 -0.298666,1.199532 -0.401451,1.808833 l -0.0046,0.110745 h 0.558339 l 1.190508,-1.402769 0.364535,0.355307 -0.636783,1.661173 v 1.176665 l 0.959789,-0.09229 1.236651,1.808833 0.807515,0.632169 0.235333,-0.235333 -0.216876,-0.719841 c -0.119471,-0.39696 -0.216881,-0.844123 -0.216882,-0.99209 v -0.267634 l 1.328938,0.179961 V 35.21226 C 41.950565,34.677479 41.40518,34.326637 41.077126,33.804877 v -0.115359 h 0.590639 v -0.156889 c 3e-6,-0.08461 -0.116281,-0.27412 -0.258405,-0.419908 -0.360593,-0.369898 -1.608921,-1.195125 -1.804219,-1.195122 h -0.161503 c -0.130907,-0.315578 -0.239576,-0.634956 -0.286091,-0.973632 v -0.216875 l 0.7383,0.189189 v -0.110745 c 3e-6,-0.05972 -0.269323,-0.596333 -0.599868,-1.195122 L 38.69611,28.521423 Z m -0.07383,0.530652 0.613711,1.010547 -0.452208,0.253791 0.08306,0.641397 c -0.08744,0.179426 -0.19556,0.286536 -0.369149,0.36915 h -0.138431 v -0.724456 l -0.313778,-0.193804 0.489124,-0.539881 -0.18919,-0.313777 z m 3.594594,1.052077 0.789057,0.359921 c -0.212551,0.09789 -0.3838,0.213433 -0.512195,0.40145 v 0.115359 l 1.181279,0.355307 v 0.286091 h -0.346078 l 0.692156,0.738299 h -1.411997 l 0.09229,0.36915 c 0.151165,0.602277 -0.006,0.422338 -0.489123,-0.544496 l -0.456823,-0.909031 v -0.99209 z m -25.946604,0.885959 c 0.368958,0.595056 0.828683,1.126588 1.27818,1.661173 l 0.821358,0.964404 c 0.604539,1.022021 1.263564,2.018541 1.748847,3.105471 l 0.230718,0.590639 -0.715227,1.767304 -0.839816,0.07383 -0.987475,-0.498352 c -0.454249,-0.620821 -0.788695,-1.310918 -1.088991,-2.01648 -0.388572,-1.207315 -0.380604,-1.200406 -1.642777,-1.869063 l -0.922813,-0.405821 -0.747528,0.705998 0.0092,-0.862887 c 0.232441,-0.738084 0.531406,-1.447766 0.927488,-2.113382 l 0.406065,-0.632168 z m 23.52406,1.49967 0.535267,0.318392 c 0.515932,0.304405 0.70438,0.586022 0.392221,0.586025 h -0.14766 v 0.572182 c 0.210442,0.09551 0.327474,0.276983 0.447594,0.466051 l 0.152274,0.290706 h -0.724456 l -0.466051,-0.466052 c 0.02321,-0.255915 -0.02532,-0.464795 -0.166117,-0.678312 l -0.166118,-0.161503 -0.415293,0.156888 c 0.136783,-0.329212 0.271016,-0.65963 0.456823,-0.964403 z m -25.023731,3.276203 c 0.195036,-0.01754 0.860748,0.82212 1.453527,1.83652 l 0.576796,0.992089 -0.0046,0.484509 c -0.383265,0.247488 -0.754534,0.522012 -1.190507,0.664469 h -0.166117 l 0.110744,-0.258404 c 0.05974,-0.142123 0.140592,-0.409265 0.179961,-0.59064 l 0.06921,-0.32762 -0.184574,-0.484509 -0.212261,0.179961 c -0.211194,0.116946 -0.361927,0.539281 -0.562893,0.978246 l -0.387668,0.798286 -0.382992,0.14766 c -0.461892,0.17561 -0.533466,0.176541 -0.775215,0.02307 l -0.189189,-0.119974 0.599868,-1.735003 -0.299934,-0.29532 c -0.321069,0.283066 -0.520944,0.670546 -0.72907,1.038234 l -0.378379,0.692155 -0.756756,0.558339 c -1.142928,0.282473 -2.238428,0.533372 -3.138016,0.913585 l -0.705755,0.359981 -0.936717,1.001318 -0.01384,-0.221489 c -0.06222,-0.809376 0.192541,-1.461753 0.945946,-2.399473 l 0.447594,-0.558339 2.464073,-0.7706 0.955175,-1.808833 c 1.069976,-0.367258 2.12914,-0.768896 3.211602,-1.09822 z"
         inkscape:connector-curvature="0" />
    </g>
  </g>
</svg>
